<mxfile host="Electron" agent="Mozilla/5.0 (X11; Linux x86_64) AppleWebKit/537.36 (KHTML, like Gecko) draw.io/26.0.16 Chrome/132.0.6834.196 Electron/34.2.0 Safari/537.36" version="26.0.16">
  <diagram name="Page-1" id="EqQ5pk6jrSUWMRu0jaas">
    <mxGraphModel dx="1410" dy="843" grid="1" gridSize="10" guides="1" tooltips="1" connect="1" arrows="1" fold="1" page="1" pageScale="1" pageWidth="850" pageHeight="1100" math="0" shadow="0">
      <root>
        <mxCell id="0" />
        <mxCell id="1" parent="0" />
        <mxCell id="BdNWIGyo4LhNtY84gAOr-5" style="edgeStyle=orthogonalEdgeStyle;rounded=0;orthogonalLoop=1;jettySize=auto;html=1;" edge="1" parent="1" source="BdNWIGyo4LhNtY84gAOr-1" target="BdNWIGyo4LhNtY84gAOr-4">
          <mxGeometry relative="1" as="geometry" />
        </mxCell>
        <mxCell id="BdNWIGyo4LhNtY84gAOr-1" value="Generate the secret number" style="whiteSpace=wrap;html=1;" vertex="1" parent="1">
          <mxGeometry x="150" y="170" width="120" height="60" as="geometry" />
        </mxCell>
        <mxCell id="BdNWIGyo4LhNtY84gAOr-3" style="edgeStyle=orthogonalEdgeStyle;rounded=0;orthogonalLoop=1;jettySize=auto;html=1;" edge="1" parent="1" source="BdNWIGyo4LhNtY84gAOr-2" target="BdNWIGyo4LhNtY84gAOr-1">
          <mxGeometry relative="1" as="geometry" />
        </mxCell>
        <mxCell id="BdNWIGyo4LhNtY84gAOr-2" value="START" style="whiteSpace=wrap;html=1;" vertex="1" parent="1">
          <mxGeometry x="150" y="50" width="120" height="60" as="geometry" />
        </mxCell>
        <mxCell id="BdNWIGyo4LhNtY84gAOr-7" style="edgeStyle=orthogonalEdgeStyle;rounded=0;orthogonalLoop=1;jettySize=auto;html=1;exitX=0.5;exitY=1;exitDx=0;exitDy=0;entryX=0.5;entryY=0;entryDx=0;entryDy=0;" edge="1" parent="1" source="BdNWIGyo4LhNtY84gAOr-4" target="BdNWIGyo4LhNtY84gAOr-6">
          <mxGeometry relative="1" as="geometry" />
        </mxCell>
        <mxCell id="BdNWIGyo4LhNtY84gAOr-4" value="Prompt a user to choose difficulty" style="whiteSpace=wrap;html=1;" vertex="1" parent="1">
          <mxGeometry x="150" y="290" width="120" height="60" as="geometry" />
        </mxCell>
        <mxCell id="BdNWIGyo4LhNtY84gAOr-9" value="" style="edgeStyle=orthogonalEdgeStyle;rounded=0;orthogonalLoop=1;jettySize=auto;html=1;" edge="1" parent="1" source="BdNWIGyo4LhNtY84gAOr-6" target="BdNWIGyo4LhNtY84gAOr-8">
          <mxGeometry relative="1" as="geometry" />
        </mxCell>
        <mxCell id="BdNWIGyo4LhNtY84gAOr-6" value="Depending on the user choice - add required amount of attempts" style="whiteSpace=wrap;html=1;" vertex="1" parent="1">
          <mxGeometry x="150" y="400" width="120" height="60" as="geometry" />
        </mxCell>
        <mxCell id="BdNWIGyo4LhNtY84gAOr-11" value="" style="edgeStyle=orthogonalEdgeStyle;rounded=0;orthogonalLoop=1;jettySize=auto;html=1;" edge="1" parent="1" source="BdNWIGyo4LhNtY84gAOr-8" target="BdNWIGyo4LhNtY84gAOr-10">
          <mxGeometry relative="1" as="geometry" />
        </mxCell>
        <mxCell id="BdNWIGyo4LhNtY84gAOr-33" style="edgeStyle=orthogonalEdgeStyle;rounded=0;orthogonalLoop=1;jettySize=auto;html=1;entryX=1;entryY=0.5;entryDx=0;entryDy=0;" edge="1" parent="1" source="BdNWIGyo4LhNtY84gAOr-29" target="BdNWIGyo4LhNtY84gAOr-8">
          <mxGeometry relative="1" as="geometry">
            <mxPoint x="660" y="550" as="sourcePoint" />
            <Array as="points">
              <mxPoint x="660" y="550" />
            </Array>
          </mxGeometry>
        </mxCell>
        <mxCell id="BdNWIGyo4LhNtY84gAOr-35" value="No" style="edgeLabel;html=1;align=center;verticalAlign=middle;resizable=0;points=[];" vertex="1" connectable="0" parent="BdNWIGyo4LhNtY84gAOr-33">
          <mxGeometry x="-0.1787" y="-1" relative="1" as="geometry">
            <mxPoint as="offset" />
          </mxGeometry>
        </mxCell>
        <mxCell id="BdNWIGyo4LhNtY84gAOr-8" value="Prompt user to guess.&amp;nbsp;" style="whiteSpace=wrap;html=1;" vertex="1" parent="1">
          <mxGeometry x="150" y="520" width="120" height="60" as="geometry" />
        </mxCell>
        <mxCell id="BdNWIGyo4LhNtY84gAOr-13" style="edgeStyle=orthogonalEdgeStyle;rounded=0;orthogonalLoop=1;jettySize=auto;html=1;" edge="1" parent="1" source="BdNWIGyo4LhNtY84gAOr-10" target="BdNWIGyo4LhNtY84gAOr-12">
          <mxGeometry relative="1" as="geometry" />
        </mxCell>
        <mxCell id="BdNWIGyo4LhNtY84gAOr-14" value="Yes" style="edgeLabel;html=1;align=center;verticalAlign=middle;resizable=0;points=[];" vertex="1" connectable="0" parent="BdNWIGyo4LhNtY84gAOr-13">
          <mxGeometry x="-0.0667" y="2" relative="1" as="geometry">
            <mxPoint as="offset" />
          </mxGeometry>
        </mxCell>
        <mxCell id="BdNWIGyo4LhNtY84gAOr-27" style="edgeStyle=orthogonalEdgeStyle;rounded=0;orthogonalLoop=1;jettySize=auto;html=1;entryX=0;entryY=0.5;entryDx=0;entryDy=0;" edge="1" parent="1" source="BdNWIGyo4LhNtY84gAOr-10" target="BdNWIGyo4LhNtY84gAOr-26">
          <mxGeometry relative="1" as="geometry" />
        </mxCell>
        <mxCell id="BdNWIGyo4LhNtY84gAOr-28" value="No" style="edgeLabel;html=1;align=center;verticalAlign=middle;resizable=0;points=[];" vertex="1" connectable="0" parent="BdNWIGyo4LhNtY84gAOr-27">
          <mxGeometry x="-0.1143" y="4" relative="1" as="geometry">
            <mxPoint as="offset" />
          </mxGeometry>
        </mxCell>
        <mxCell id="BdNWIGyo4LhNtY84gAOr-10" value="guessed right?" style="rhombus;whiteSpace=wrap;html=1;" vertex="1" parent="1">
          <mxGeometry x="130" y="630" width="160" height="80" as="geometry" />
        </mxCell>
        <mxCell id="BdNWIGyo4LhNtY84gAOr-12" value="Game Over" style="rounded=0;whiteSpace=wrap;html=1;" vertex="1" parent="1">
          <mxGeometry x="150" y="800" width="120" height="60" as="geometry" />
        </mxCell>
        <mxCell id="BdNWIGyo4LhNtY84gAOr-34" style="edgeStyle=orthogonalEdgeStyle;rounded=0;orthogonalLoop=1;jettySize=auto;html=1;entryX=0;entryY=0.5;entryDx=0;entryDy=0;" edge="1" parent="1" source="BdNWIGyo4LhNtY84gAOr-26" target="BdNWIGyo4LhNtY84gAOr-29">
          <mxGeometry relative="1" as="geometry" />
        </mxCell>
        <mxCell id="BdNWIGyo4LhNtY84gAOr-26" value="Lose an attempt" style="whiteSpace=wrap;html=1;" vertex="1" parent="1">
          <mxGeometry x="290" y="700" width="120" height="60" as="geometry" />
        </mxCell>
        <mxCell id="BdNWIGyo4LhNtY84gAOr-37" style="edgeStyle=orthogonalEdgeStyle;rounded=0;orthogonalLoop=1;jettySize=auto;html=1;entryX=1;entryY=0.75;entryDx=0;entryDy=0;" edge="1" parent="1" source="BdNWIGyo4LhNtY84gAOr-29" target="BdNWIGyo4LhNtY84gAOr-12">
          <mxGeometry relative="1" as="geometry">
            <Array as="points">
              <mxPoint x="660" y="845" />
            </Array>
          </mxGeometry>
        </mxCell>
        <mxCell id="BdNWIGyo4LhNtY84gAOr-38" value="Yes" style="edgeLabel;html=1;align=center;verticalAlign=middle;resizable=0;points=[];" vertex="1" connectable="0" parent="BdNWIGyo4LhNtY84gAOr-37">
          <mxGeometry x="0.2" y="-1" relative="1" as="geometry">
            <mxPoint as="offset" />
          </mxGeometry>
        </mxCell>
        <mxCell id="BdNWIGyo4LhNtY84gAOr-29" value="Is the user run out of&lt;div&gt;attempts?&lt;/div&gt;" style="rhombus;whiteSpace=wrap;html=1;" vertex="1" parent="1">
          <mxGeometry x="580" y="630" width="160" height="80" as="geometry" />
        </mxCell>
      </root>
    </mxGraphModel>
  </diagram>
</mxfile>
